<?xml version="1.0" encoding="UTF-8" standalone="no"?>
<!-- Created with Inkscape (http://www.inkscape.org/) -->

<svg
   width="25.376728mm"
   height="19.044252mm"
   viewBox="0 0 25.376728 19.044252"
   version="1.1"
   id="svg1"
   xml:space="preserve"
   inkscape:export-filename="rf_icon.svg"
   inkscape:export-xdpi="96"
   inkscape:export-ydpi="96"
   xmlns:inkscape="http://www.inkscape.org/namespaces/inkscape"
   xmlns:sodipodi="http://sodipodi.sourceforge.net/DTD/sodipodi-0.dtd"
   xmlns="http://www.w3.org/2000/svg"
   xmlns:svg="http://www.w3.org/2000/svg"><sodipodi:namedview
     id="namedview1"
     pagecolor="#ffffff"
     bordercolor="#000000"
     borderopacity="0.25"
     inkscape:showpageshadow="2"
     inkscape:pageopacity="0.0"
     inkscape:pagecheckerboard="0"
     inkscape:deskcolor="#d1d1d1"
     inkscape:document-units="mm"
     inkscape:zoom="0.63118804"
     inkscape:cx="268.54121"
     inkscape:cy="457.07457"
     inkscape:window-width="1366"
     inkscape:window-height="697"
     inkscape:window-x="-8"
     inkscape:window-y="207"
     inkscape:window-maximized="1"
     inkscape:current-layer="layer1" /><defs
     id="defs1" /><g
     inkscape:label="Camada 1"
     inkscape:groupmode="layer"
     id="layer1"
     transform="translate(147.53667,-138.53346)"><path
       style="fill:#ffffff;fill-opacity:1;stroke:none;stroke-width:0.234698;stroke-linecap:round;stroke-linejoin:miter;stroke-dasharray:none;stroke-opacity:1;paint-order:stroke fill markers"
       d="m -140.87275,157.37369 c -0.57601,-0.29175 -0.66141,-0.49743 -0.66156,-1.59318 l -1.2e-4,-0.8707 h -3.00112 c -2.66101,0 -3.00112,-0.013 -3.00112,-0.11484 0,-0.26012 0.27886,-0.6835 2.20127,-3.34202 0.62332,-0.86199 1.13331,-1.58322 1.13331,-1.60274 0,-0.0195 -0.51518,-0.0596 -1.14485,-0.0891 -0.68525,-0.0321 -1.19333,-0.0891 -1.26563,-0.14198 -0.10756,-0.0786 -0.0844,-0.13668 0.21129,-0.52961 0.18264,-0.24271 0.96893,-1.18016 1.7473,-2.08323 0.77836,-0.90307 1.41521,-1.65722 1.41521,-1.6759 0,-0.0187 -0.51699,-0.0497 -1.14887,-0.0689 -0.63189,-0.0192 -1.16955,-0.0556 -1.19482,-0.0808 -0.0721,-0.0721 0.23728,-0.54904 0.82702,-1.27495 0.61066,-0.75165 2.62042,-3.10315 3.62857,-4.24558 l 0.66692,-0.75574 0.17596,0.20351 c 4.14484,4.79361 4.62581,5.379 4.47047,5.44099 -0.0694,0.0277 -0.49302,0.0556 -0.94134,0.0621 -0.44832,0.006 -0.97465,0.0338 -1.16964,0.0608 l -0.35452,0.0491 1.41837,1.63024 c 2.08722,2.39898 2.31158,2.68127 2.17327,2.73434 -0.0637,0.0245 -0.47164,0.0448 -0.90644,0.0451 -0.91653,8e-4 -1.58302,0.068 -1.55271,0.15657 0.0296,0.0866 3.32116,4.57719 3.44796,4.70399 0.13873,0.13873 0.49913,0.13155 0.64351,-0.0128 0.24915,-0.24915 0.14155,-0.45649 -1.14503,-2.20637 l -1.26147,-1.71573 0.79015,-0.0538 c 0.81439,-0.0555 1.06142,-0.14258 1.21425,-0.42814 0.1996,-0.37295 -0.0854,-0.80607 -1.94997,-2.96376 l -0.92853,-1.07448 0.67796,-0.0581 c 0.7214,-0.0618 0.97837,-0.17005 1.08792,-0.45818 0.15471,-0.40691 -0.13361,-0.84249 -1.97345,-2.98151 -0.46282,-0.53809 -0.8415,-1.01566 -0.8415,-1.06126 0,-0.0966 2.06105,-2.44357 2.14591,-2.44357 0.0814,0 3.20063,3.57693 4.78179,5.48354 l 0.58381,0.70396 -0.47675,0.0469 c -0.26221,0.0258 -0.85189,0.0508 -1.31039,0.0556 -0.45851,0.005 -0.83365,0.0257 -0.83365,0.0466 0,0.0208 0.65902,0.79614 1.46449,1.72287 0.80547,0.92673 1.64484,1.90171 1.86528,2.16662 l 0.40079,0.48166 -0.43882,0.0475 c -0.24135,0.0261 -0.83063,0.0512 -1.30951,0.0556 -0.47889,0.004 -0.8707,0.0364 -0.8707,0.0711 0,0.0347 0.79329,1.14343 1.76287,2.46389 1.51005,2.05651 1.79261,2.40427 1.97025,2.42489 0.12174,0.0141 0.26588,-0.0289 0.34903,-0.10411 0.2937,-0.26579 0.19932,-0.45608 -1.1112,-2.24048 l -1.25284,-1.70588 0.64151,-0.046 c 0.97181,-0.0697 1.10261,-0.1019 1.26816,-0.31236 0.18275,-0.23233 0.19001,-0.40224 0.0315,-0.73635 -0.12226,-0.25764 -1.33717,-1.75028 -2.27221,-2.79163 -0.28477,-0.31716 -0.49845,-0.59597 -0.47484,-0.61959 0.0236,-0.0236 0.32196,-0.0646 0.66299,-0.0911 0.3885,-0.0302 0.69202,-0.0954 0.81278,-0.17449 0.25651,-0.16807 0.32365,-0.49796 0.16806,-0.82583 -0.12001,-0.25292 -1.0981,-1.48068 -2.16154,-2.71332 -0.29847,-0.34597 -0.54268,-0.65095 -0.54268,-0.67772 0,-0.0416 0.85237,-1.0301 1.90131,-2.20504 l 0.29053,-0.32542 1.63195,1.88155 c 3.075,3.54533 3.67642,4.30358 3.52975,4.45024 -0.0457,0.0458 -0.55285,0.10025 -1.17893,0.12669 -0.67676,0.0286 -1.09015,0.0748 -1.07653,0.1205 0.0122,0.0408 0.41231,0.523 0.88922,1.07165 2.21753,2.55111 2.6146,3.06454 2.47667,3.20248 -0.0477,0.0477 -0.55708,0.10059 -1.22939,0.12773 -0.63139,0.0255 -1.16192,0.0625 -1.17896,0.0824 -0.017,0.0198 0.64664,0.96968 1.47483,2.11085 1.65752,2.28389 1.94621,2.74267 1.81097,2.87804 -0.0615,0.0616 -0.91393,0.0926 -2.9983,0.10916 l -2.91235,0.0231 -0.0442,0.93585 c -0.0353,0.74728 -0.072,0.97405 -0.18225,1.12544 -0.17257,0.23705 -0.72393,0.51695 -1.0183,0.51695 -0.29437,0 -0.84573,-0.2799 -1.0183,-0.51695 -0.11031,-0.15151 -0.14696,-0.37847 -0.18247,-1.13005 l -0.0444,-0.94046 h -1.72376 -1.72375 l -0.0249,0.84642 c -0.0228,0.77501 -0.04,0.86246 -0.20383,1.03667 -0.0984,0.10463 -0.35685,0.25681 -0.57429,0.33817 -0.39511,0.14782 -0.39561,0.14782 -0.79071,0 -0.21745,-0.0814 -0.47572,-0.23346 -0.57394,-0.33802 -0.16309,-0.1736 -0.18092,-0.26352 -0.20546,-1.03666 l -0.0269,-0.84658 h -1.36289 -1.36288 V 155.84 c 0,1.1508 -0.0505,1.26985 -0.65332,1.54039 -0.24183,0.10852 -0.4879,0.19732 -0.54682,0.19732 -0.0589,0 -0.28816,-0.0917 -0.50944,-0.20378 z"
       id="path12"
       inkscape:export-filename="path12.svg"
       inkscape:export-xdpi="96"
       inkscape:export-ydpi="96" /></g></svg>
